<?xml version="1.0" encoding="UTF-8"?>
<!DOCTYPE svg PUBLIC "-//W3C//DTD SVG 1.1//EN" "http://www.w3.org/Graphics/SVG/1.1/DTD/svg11.dtd">
<svg viewBox="0 0 1 2" xmlns="http://www.w3.org/2000/svg" xmlns:xlink="http://www.w3.org/1999/xlink"
    preserveAspectRatio="xMinYMin meet" stroke="rgb(35,35,35)">
    <path stroke-width="4.0e-2" d="M 0.5,0.5 L 0.5,0.19999999 A 0.3,0.3 0.0 0,1 0.75980765,0.35000002 Z"
        fill="rgb(76, 174, 67)" transform="rotate(0.0,0.5,0.5)" />
    <path stroke-width="4.0e-2" d="M 0.5,0.5 L 0.5,0.19999999 A 0.3,0.3 0.0 0,1 0.75980765,0.35000002 Z"
        fill="rgb(255, 222, 0)" transform="rotate(60.0,0.5,0.5)" />
    <path stroke-width="4.0e-2" d="M 0.5,0.5 L 0.5,0.19999999 A 0.3,0.3 0.0 0,1 0.75980765,0.35000002 Z"
        fill="rgb(248, 152, 41)" transform="rotate(120.0,0.5,0.5)" />
    <path stroke-width="4.0e-2" d="M 0.5,0.5 L 0.5,0.19999999 A 0.3,0.3 0.0 0,1 0.75980765,0.35000002 Z"
        fill="rgb(216, 12, 140)" transform="rotate(180.0,0.5,0.5)" />
    <path stroke-width="4.0e-2" d="M 0.5,0.5 L 0.5,0.19999999 A 0.3,0.3 0.0 0,1 0.75980765,0.35000002 Z"
        fill="rgb(3, 151, 214)" transform="rotate(240.0,0.5,0.5)" />
    <path stroke-width="4.0e-2" d="M 0.5,0.5 L 0.5,0.19999999 A 0.3,0.3 0.0 0,1 0.75980765,0.35000002 Z"
        fill="rgb(136, 63, 152)" transform="rotate(300.0,0.5,0.5)" />
    <g transform="translate(0.5 1.0)matrix(-1,0,0,1,1,0)">
        <path stroke-width="4.0e-2" d="M 0.5,0.5 L 0.5,0.19999999 A 0.3,0.3 0.0 0,1 0.75980765,0.35000002 Z"
            fill="rgb(76, 174, 67)" transform="rotate(0.0,0.5,0.5)" />
        <path stroke-width="4.0e-2" d="M 0.5,0.5 L 0.5,0.19999999 A 0.3,0.3 0.0 0,1 0.75980765,0.35000002 Z"
            fill="rgb(255, 222, 0)" transform="rotate(60.0,0.5,0.5)" />
        <path stroke-width="4.0e-2" d="M 0.5,0.5 L 0.5,0.19999999 A 0.3,0.3 0.0 0,1 0.75980765,0.35000002 Z"
            fill="rgb(248, 152, 41)" transform="rotate(120.0,0.5,0.5)" />
    </g>
    <g transform="translate(-0.5 1.0)matrix(-1,0,0,1,1,0)">
        <path stroke-width="4.0e-2" d="M 0.5,0.5 L 0.5,0.19999999 A 0.3,0.3 0.0 0,1 0.75980765,0.35000002 Z"
            fill="rgb(216, 12, 140)" transform="rotate(180.0,0.5,0.5)" />
        <path stroke-width="4.0e-2" d="M 0.5,0.5 L 0.5,0.19999999 A 0.3,0.3 0.0 0,1 0.75980765,0.35000002 Z"
            fill="rgb(3, 151, 214)" transform="rotate(240.0,0.5,0.5)" />
        <path stroke-width="4.0e-2" d="M 0.5,0.5 L 0.5,0.19999999 A 0.3,0.3 0.0 0,1 0.75980765,0.35000002 Z"
            fill="rgb(136, 63, 152)" transform="rotate(300.0,0.5,0.5)" />
    </g>
</svg>